# xmcd
#
# Track frame offsets:
#	150
#	11702
#	22975
#	35729
#	42404
#	55429
#	68136
#	77398
#	89232
#	103008
#	115399
#	126871
#	139696
#	147253
#	157650
#	170273
#	176716
#	189326
#	208100
#	223861
#
# Disc length: 3221
#
# Revision: 3
# Processed by: cddbd v1.5.1PL0 Copyright (c) Steve Scherf et al.
# Submitted via: EasyCDDAExtractor 7.0.6.1
# Normalized: r2:DSETVAR1
#
DISCID=210c9314
DTITLE=Various Artist - Bluegrass For Beginners
DYEAR=1900
DGENRE=Bluegrass
TTITLE0=Wynn Osborne - Foggy Mountain Breakdown
TTITLE1=Jimmy Martin and Ricky Skaggs - Darlin' Corey
TTITLE2=Benny Martin - Wabash Cannonball
TTITLE3=Benny Martin and Josh Graves - Salty Dog Blues
TTITLE4=The Seldom Scene - Little Georgia Rose
TTITLE5=Jimmy Martin and Marty Stuart - Rose of Old Kentucky
TTITLE6=Mac Wiseman - Jimmy Brown The Newsboy
TTITLE7=The Osborne Brothers - Rocky Top
TTITLE8=Jim and Jesse - Great Speckled Bird
TTITLE9=The Bluegrass Cardinals - I'm Just a Used To Be To You
TTITLE10=Don Reno - Dueling Banjos
TTITLE11=The Osborne Brothers and Mac Wiseman - I Wonder How The Old Folks Are At Home
TTITLE12=Merle Travis and Joe Maphis - Wildwood Flower
TTITLE13=Don Reno and Bill Harrel - Bringin' In The Georgia Mail
TTITLE14=The Osborne Brothers and Mac Wiseman - The Bluebirds Are Singing For Me
TTITLE15=Fiddlin' Ronnie Stewart with Lester Flatt and The Nashville Grass - Durham's Bull
TTITLE16=Jim and Jesse - Paradise
TTITLE17=Grandpa Jones - Mule Skinner Blues
TTITLE18=Bill Monroe - Body and Soul
TTITLE19=Lester Flatt and The Nashville Grass - Orange Blossum Special
EXTD=
EXTT0=
EXTT1=
EXTT2=
EXTT3=
EXTT4=
EXTT5=
EXTT6=
EXTT7=
EXTT8=
EXTT9=
EXTT10=
EXTT11=
EXTT12=
EXTT13=
EXTT14=
EXTT15=
EXTT16=
EXTT17=
EXTT18=
EXTT19=
PLAYORDER=
